<?xml version="1.0" standalone="no"?><!DOCTYPE svg PUBLIC "-//W3C//DTD SVG 1.1//EN" "http://www.w3.org/Graphics/SVG/1.1/DTD/svg11.dtd"><svg t="1764308022866" class="icon" viewBox="0 0 1024 1024" version="1.1" xmlns="http://www.w3.org/2000/svg" p-id="4721" xmlns:xlink="http://www.w3.org/1999/xlink" width="200" height="200"><path d="M153.6 167.936v688.128c0 7.68 6.144 14.336 14.336 14.336h314.368c7.68 0 14.336-6.144 14.336-14.336v-43.008c0-7.68-6.144-14.336-14.336-14.336H239.616c-7.68 0-14.336-6.144-14.336-14.336V239.616c0-7.68 6.144-14.336 14.336-14.336h544.768c7.68 0 14.336 6.144 14.336 14.336v258.048c0 7.68 6.144 14.336 14.336 14.336h43.008c7.68 0 14.336-6.144 14.336-14.336V167.936c0-7.68-6.144-14.336-14.336-14.336H167.936c-8.192 0-14.336 6.144-14.336 14.336z m327.168 100.352H275.456c-7.68 0-14.336 6.144-14.336 14.336v205.312c0 7.68 6.144 14.336 14.336 14.336h205.312c7.68 0 14.336-6.144 14.336-14.336V282.624c-0.512-7.68-6.656-14.336-14.336-14.336z m48.64 14.336v205.312c0 7.68 6.144 14.336 14.336 14.336h205.312c7.68 0 14.336-6.144 14.336-14.336V282.624c0-7.68-6.144-14.336-14.336-14.336h-205.312c-8.192 0-14.336 6.656-14.336 14.336z m-253.952 491.008h205.312c7.68 0 14.336-6.144 14.336-14.336v-205.312c0-7.68-6.144-14.336-14.336-14.336H275.456c-7.68 0-14.336 6.144-14.336 14.336v205.312c0 7.68 6.144 14.336 14.336 14.336z m266.24 96.768h314.368c7.68 0 14.336-6.144 14.336-14.336v-43.008c0-7.68-6.144-14.336-14.336-14.336h-314.368c-7.68 0-14.336 6.144-14.336 14.336v43.008c0 8.192 6.144 14.336 14.336 14.336z m0-261.12h314.368c7.68 0 14.336-6.144 14.336-14.336v-43.008c0-7.68-6.144-14.336-14.336-14.336h-314.368c-7.68 0-14.336 6.144-14.336 14.336v43.008c0 8.192 6.144 14.336 14.336 14.336z m0 130.56h314.368c7.68 0 14.336-6.144 14.336-14.336v-43.008c0-7.68-6.144-14.336-14.336-14.336h-314.368c-7.68 0-14.336 6.144-14.336 14.336v43.008c0 8.192 6.144 14.336 14.336 14.336z" p-id="4722" fill="#515151"></path></svg>