<?xml version="1.0" standalone="no"?><!DOCTYPE svg PUBLIC "-//W3C//DTD SVG 1.1//EN" "http://www.w3.org/Graphics/SVG/1.1/DTD/svg11.dtd"><svg t="1763523652495" class="icon" viewBox="0 0 1024 1024" version="1.1" xmlns="http://www.w3.org/2000/svg" p-id="5114" xmlns:xlink="http://www.w3.org/1999/xlink" width="200" height="200"><path d="M153.6 192a38.4 38.4 0 1 0 76.8 0 38.4 38.4 0 0 0-76.8 0zM192 64a128 128 0 0 1 25.6 253.44V486.4H384V576H217.6v294.4H384V960H128V302.848A128 128 0 0 1 192 64z m691.2 179.2H524.8V140.8h358.4v102.4zM448 128v128a64 64 0 0 0 64 64h384a64 64 0 0 0 64-64V128a64 64 0 0 0-64-64H512a64 64 0 0 0-64 64z m76.8 435.2V460.8h358.4v102.4H524.8zM448 448v128a64 64 0 0 0 64 64h384a64 64 0 0 0 64-64V448a64 64 0 0 0-64-64H512a64 64 0 0 0-64 64z m76.8 332.8v102.4h358.4v-102.4H524.8zM512 704h384a64 64 0 0 1 64 64v128a64 64 0 0 1-64 64H512a64 64 0 0 1-64-64v-128a64 64 0 0 1 64-64z" fill="#515151" p-id="5115"></path></svg>