<?xml version="1.0" standalone="no"?><!DOCTYPE svg PUBLIC "-//W3C//DTD SVG 1.1//EN" "http://www.w3.org/Graphics/SVG/1.1/DTD/svg11.dtd"><svg t="1763523808434" class="icon" viewBox="0 0 1024 1024" version="1.1" xmlns="http://www.w3.org/2000/svg" p-id="11276" xmlns:xlink="http://www.w3.org/1999/xlink" width="200" height="200"><path d="M578.56 238.08L307.2 506.88c-61.44 61.44-61.44 158.72 0 220.16 61.44 61.44 158.72 61.44 220.16 0l222.72-220.16c15.36-15.36 15.36-38.4 0-53.76-15.36-15.36-38.4-15.36-53.76 0l-222.72 220.16c-30.72 30.72-79.36 30.72-110.08 0-30.72-30.72-30.72-79.36 0-110.08l271.36-268.8c66.56-66.56 171.52-66.56 238.08 0 66.56 66.56 66.56 171.52 0 238.08L568.32 832c-102.4 102.4-268.8 102.4-371.2 0s-102.4-266.24 0-368.64L560.64 102.4c15.36-15.36 15.36-38.4 0-53.76-15.36-15.36-40.96-15.36-53.76 0l-363.52 358.4C10.24 537.6 10.24 752.64 140.8 885.76c133.12 133.12 348.16 133.12 478.72 0L921.6 583.68c94.72-94.72 97.28-250.88 0-345.6-92.16-97.28-248.32-97.28-343.04 0z" fill="#515151" p-id="11277"></path></svg>