<?xml version="1.0" standalone="no"?><!DOCTYPE svg PUBLIC "-//W3C//DTD SVG 1.1//EN" "http://www.w3.org/Graphics/SVG/1.1/DTD/svg11.dtd"><svg t="1753602693204" class="icon" viewBox="0 0 1024 1024" version="1.1" xmlns="http://www.w3.org/2000/svg" p-id="5045" xmlns:xlink="http://www.w3.org/1999/xlink" width="200" height="200"><path d="M751.2 439.2H269.6c-11.2 0-20 8.8-20 20s8.8 20 20 20h481.6c11.2 0 20-8.8 20-20s-8.8-20-20-20zM557.6 592h-288c-11.2 0-20 8.8-20 20s8.8 20 20 20h288c11.2 0 20-8.8 20-20S568.8 592 557.6 592zM487.2 785.6c11.2 0 20-8.8 20-20s-8.8-20-20-20H269.6c-11.2 0-20 8.8-20 20s8.8 20 20 20h217.6z" p-id="5046"></path><path d="M541.6 972.8H120V188h129.6v93.6c0 11.2 8.8 20 20 20h481.6c11.2 0 20-8.8 20-20V188h129.6v360.8c0 11.2 8.8 20 20 20s20-8.8 20-20V168c0-11.2-8.8-20-20-20H771.2v-32c0-11.2-8.8-20-20-20H696V32.8c0-11.2-8.8-20-20-20H345.6c-11.2 0-20 8.8-20 20V96h-55.2c-11.2 0-20 8.8-20 20v32H100c-11.2 0-20 8.8-20 20v825.6c0 11.2 8.8 20 20 20h441.6c11.2 0 20-8.8 20-20s-8.8-20.8-20-20.8zM289.6 136h55.2c11.2 0 20-8.8 20-20V52.8H656v63.2c0 11.2 8.8 20 20 20h55.2v125.6H289.6V136z" p-id="5047"></path><path d="M989.6 784h-169.6V615.2c0-11.2-8.8-20-20-20s-20 8.8-20 20V784H610.4c-11.2 0-20 8.8-20 20s8.8 20 20 20h169.6v169.6c0 11.2 8.8 20 20 20s20-8.8 20-20V824h169.6c11.2 0 20-8.8 20-20S1000 784 989.6 784z" p-id="5048"></path></svg>