<?xml version="1.0" standalone="no"?><!DOCTYPE svg PUBLIC "-//W3C//DTD SVG 1.1//EN" "http://www.w3.org/Graphics/SVG/1.1/DTD/svg11.dtd"><svg t="1752809159605" class="icon" viewBox="0 0 1024 1024" version="1.1" xmlns="http://www.w3.org/2000/svg" p-id="3497" xmlns:xlink="http://www.w3.org/1999/xlink" width="200" height="200"><path d="M877.4 189.88c30.68 4.44 54.4 30.68 54.4 62.48 0 43.36-42.68 76.48-90.68 58.52v603.36H170.16V243.28c0-30 24.4-54.4 54.4-54.4h652.84v1z m18.12 62.48c0-15-12.2-27.2-27.2-27.2s-27.2 12.2-27.2 27.2v9.08c0 17.96 26.04 18.12 27.2 18.12 15 0 27.2-12.2 27.2-27.2z m-84.24-27.2H224.56a18.08 18.08 0 0 0-18.12 18.12V878h598.44V252.36c-0.04-9.72 2.44-18.96 6.4-27.2z" fill="#222222" p-id="3498"></path><path d="M868.32 225.16c15 0 27.2 12.2 27.2 27.2s-12.2 27.2-27.2 27.2c-1.16 0-27.2-0.16-27.2-18.12v-9.08c0-15 12.2-27.2 27.2-27.2z" fill="#CCCCCC" p-id="3499"></path><path d="M718.48 360.52c7.6 0 13.84 7.24 13.84 16.16s-6.28 16.16-13.84 16.16l-371.28 3.92c-7.6 0-13.84-7.24-13.84-16.16s6.28-16.16 13.84-16.16l371.28-3.92zM718.48 479.04c7.6 0 13.84 7.24 13.84 16.16s-6.28 16.16-13.84 16.16l-371.24 3.96c-7.6 0-13.84-7.24-13.84-16.16s6.28-16.16 13.84-16.16l371.24-3.96zM718.48 596.24c7.6 0 13.84 7.24 13.84 16.16s-6.28 16.16-13.84 16.16l-371.24 3.96c-7.6 0-13.84-7.24-13.84-16.16s6.28-16.16 13.84-16.16l371.24-3.96zM718.48 714.8c7.6 0 13.84 7.24 13.84 16.16s-6.28 16.16-13.84 16.16l-371.24 3.96c-7.6 0-13.84-7.24-13.84-16.16s6.28-16.16 13.84-16.16l371.24-3.96z" fill="#222222" p-id="3500"></path><path d="M297.08 378.64m-18.12 0a18.12 18.12 0 1 0 36.24 0 18.12 18.12 0 1 0-36.24 0Z" fill="#222222" p-id="3501"></path><path d="M297.08 497.16m-18.12 0a18.12 18.12 0 1 0 36.24 0 18.12 18.12 0 1 0-36.24 0Z" fill="#222222" p-id="3502"></path><path d="M297.08 614.4m-18.12 0a18.12 18.12 0 1 0 36.24 0 18.12 18.12 0 1 0-36.24 0Z" fill="#222222" p-id="3503"></path><path d="M297.08 732.92m-18.12 0a18.12 18.12 0 1 0 36.24 0 18.12 18.12 0 1 0-36.24 0Z" fill="#222222" p-id="3504"></path></svg>